<?xml version="1.0" encoding="utf-8"?>
<!-- Generator: Adobe Illustrator 26.0.3, SVG Export Plug-In . SVG Version: 6.00 Build 0)  -->
<svg version="1.1" id="Layer_1" xmlns="http://www.w3.org/2000/svg" xmlns:xlink="http://www.w3.org/1999/xlink" x="0px" y="0px"
	 viewBox="0 0 792 612" style="enable-background:new 0 0 792 612;" xml:space="preserve">
<style type="text/css">
	.st0{fill:#465600;}
	.st1{fill:#91B203;}
	.st2{fill:#B9D700;}
	.st3{fill:#764314;}
</style>
<image style="overflow:visible;" width="400" height="400" xlink:href="../../../Downloads/Color Hunt Palette 125c133e7c17f4a442e8e1d9.png"  transform="matrix(1 0 0 1 819 79)">
</image>
<g>
	<path class="st0" d="M268.4,130.2c0,0,41.4-95.2,134.6-92.5c0,0,94.5-9,158.7,115.9c0,0,84.2,171.8,65.6,267.1
		c-18.6,95.2-75.2,134.6-135.9,164.2c0,0-100.1,38.6-188.4-22.1C214.5,502.1,200,412.4,200,412.4s-16.6-78,27.6-181.5L268.4,130.2z"
		/>
	<path class="st1" d="M277.3,136.4c0,0,46.2-115.9,167.7-81.4c0,0,58.7,6.2,104.9,113.2c46.2,107,54.5,192.5,54.5,192.5
		s11,88.3-55.2,150.4C483,573.2,385.7,596,299.4,542.2S200,382.7,209,331.7C218,280.6,277.3,136.4,277.3,136.4z"/>
	<path class="st2" d="M394,68.7c0,0,89-17.3,132.5,118c0,0,53.8,118,49.7,188.4s-38.6,105.6-38.6,105.6s-62.8,84.9-171.1,60
		S230.4,430.4,227.6,378.6s13.8-101.4,29.7-135.9s17.8-86.6,91.1-161.5C357.3,72.1,380.8,66.7,394,68.7z"/>
	<ellipse class="st3" cx="402.2" cy="364.8" rx="107.7" ry="115.9"/>
</g>
</svg>
