<?xml version="1.0" encoding="UTF-8"?><svg id="a" xmlns="http://www.w3.org/2000/svg" xmlns:xlink="http://www.w3.org/1999/xlink" viewBox="0 0 159 208"><defs><style>.j{fill:url(#f);}.k{fill:url(#c);stroke:#125c13;stroke-miterlimit:10;}.l{fill:#e2b58e;}.m{fill:#3a3a3c;}</style><linearGradient id="c" x1="11.32" y1="115.16" x2="162.29" y2="85.75" gradientTransform="matrix(1, 0, 0, 1, 0, 0)" gradientUnits="userSpaceOnUse"><stop offset=".35" stop-color="#d6d884"/><stop offset=".72" stop-color="#a2bb58"/><stop offset="1" stop-color="#83934a"/></linearGradient><linearGradient id="f" x1="46.66" y1="134.76" x2="120.86" y2="134.76" gradientTransform="matrix(1, 0, 0, 1, 0, 0)" gradientUnits="userSpaceOnUse"><stop offset=".01" stop-color="#cf9d40"/><stop offset=".52" stop-color="#cf8240"/><stop offset="1" stop-color="#a86331"/></linearGradient></defs><g id="b"><path id="d" class="k" d="M113.27,58.17c-19.63-16.59-34.78-40.24-34.78-40.24C59.44-5.16,32.76,4.39,29.36,5.73c0,0-.06,.02-.18,.07-.12,.05-.18,.08-.18,.08C25.67,7.38,.22,19.83,3.48,49.59c0,0,6.38,27.35,4.57,52.99,0,0-3.98,42.25,8.35,64.22,12.33,21.96,43.77,53.84,94.97,33.78l.04-.02c50.09-22.69,49.18-67.46,42.05-91.61-7.14-24.16-40.19-50.78-40.19-50.78Z"/><g id="e"><circle id="g" class="j" cx="83.76" cy="134.76" r="37.09"/><path id="h" class="l" d="M108.49,132.76c-1.5-1.9-3.44-2.98-4.76-2.75h0s-.04,0-.06,.01c-.18,.04-.35,.1-.51,.19-1.82,.89-2.24,3.39-2.24,3.39,.02,4.72-7.14,18.03-7.14,18.03-1.28,5.95,9.29,6.77,14.51-3,2.66-4.98,2.58-9.4,1.86-12.54h-.01c-.22-1.04-.78-2.23-1.65-3.34Z"/></g><path id="i" class="m" d="M67.1,33.6l-3.78-1.02c-.99-.27-2,.32-2.27,1.31l-1.49,5.54c-.25,.93,.26,1.89,1.15,2.22l-3.56,13.26s-14.92,9.81-17.26,19.94,7.44,14.48,7.44,14.48c0,0,10.52,5.13,17.48-4.33s-3.72-29.03-3.72-29.03l3.73-13.21c.93,.16,1.85-.41,2.1-1.35l1.49-5.54c.27-.99-.32-2-1.31-2.27Zm-9.75,43.64l-7.09-1.9,.34-1.27,7.09,1.9-.34,1.27Zm.19-3.79c-2.01,1.16-4.57,.47-5.73-1.54s-.47-4.57,1.54-5.73,4.57-.47,5.73,1.54,.47,4.57-1.54,5.73Z"/></g></svg>