<svg id="Layer_1" data-name="Layer 1" xmlns="http://www.w3.org/2000/svg" viewBox="0 0 164 209"><defs><style>.cls-1,.cls-10,.cls-11,.cls-12,.cls-13,.cls-14,.cls-15,.cls-16,.cls-17,.cls-18,.cls-19,.cls-2,.cls-20,.cls-21,.cls-22,.cls-23,.cls-24,.cls-25,.cls-26,.cls-27,.cls-28,.cls-29,.cls-3,.cls-30,.cls-31,.cls-32,.cls-33,.cls-34,.cls-35,.cls-36,.cls-37,.cls-38,.cls-39,.cls-4,.cls-40,.cls-41,.cls-42,.cls-43,.cls-44,.cls-45,.cls-46,.cls-47,.cls-5,.cls-6,.cls-7,.cls-8,.cls-9{fill:none;stroke-miterlimit:10;}.cls-1{stroke:#676a3c;}.cls-2{stroke:#6a6e3d;}.cls-3{stroke:#6c713e;}.cls-4{stroke:#6f7540;}.cls-5{stroke:#717841;}.cls-6{stroke:#747c42;}.cls-7{stroke:#767f43;}.cls-8{stroke:#798345;}.cls-9{stroke:#7c8646;}.cls-10{stroke:#7e8a47;}.cls-11{stroke:#818d48;}.cls-12{stroke:#839149;}.cls-13{stroke:#86944b;}.cls-14{stroke:#88984c;}.cls-15{stroke:#8b9b4d;}.cls-16{stroke:#8d9f4e;}.cls-17{stroke:#90a24f;}.cls-18{stroke:#93a651;}.cls-19{stroke:#95a952;}.cls-20{stroke:#98ad53;}.cls-21{stroke:#9ab054;}.cls-22{stroke:#9db456;}.cls-23{stroke:#9fb757;}.cls-24{stroke:#a2bb58;}.cls-25{stroke:#a4bc5a;}.cls-26{stroke:#a7be5c;}.cls-27{stroke:#a9bf5e;}.cls-28{stroke:#abc060;}.cls-29{stroke:#adc162;}.cls-30{stroke:#b0c363;}.cls-31{stroke:#b2c465;}.cls-32{stroke:#b4c567;}.cls-33{stroke:#b6c669;}.cls-34{stroke:#b9c86b;}.cls-35{stroke:#bbc96d;}.cls-36{stroke:#bdca6f;}.cls-37{stroke:#bfcb71;}.cls-38{stroke:#c2cd73;}.cls-39{stroke:#c4ce75;}.cls-40{stroke:#c6cf77;}.cls-41{stroke:#c8d079;}.cls-42{stroke:#cbd27a;}.cls-43{stroke:#cdd37c;}.cls-44{stroke:#cfd47e;}.cls-45{stroke:#d1d580;}.cls-46{stroke:#d4d782;}.cls-47{stroke:#d6d884;}.cls-48{fill:#cf8240;}.cls-49{fill:#e2b58e;}.cls-50{fill:#3a3a3c;}</style></defs><g id="avocado_drum2"><g id="meat"><path class="cls-1" d="M117.47,57.93c-19.54-16.51-34.61-40-34.61-40C63.9-5.1,37.35,4.4,34,5.74l-.18.07-.18.08C30.29,7.38,5,19.78,8.2,49.39c0,0,6.35,27.22,4.55,52.74,0,0-4,42.05,8.31,63.92s43.56,53.59,94.52,33.62h0c49.86-22.59,48.95-67.14,41.85-91.18S117.47,57.93,117.47,57.93Z"/><path class="cls-2" d="M117.35,58.09C97.87,41.63,82.84,18.17,82.84,18.17,64-4.73,37.48,4.74,34.11,6.07l-.18.07-.17.08C30.45,7.71,5.2,20.06,8.43,49.58c0,0,6.33,27.13,4.54,52.57,0,0-4,41.91,8.28,63.71s43.42,53.41,94.22,33.51l0,0c49.7-22.51,48.79-66.92,41.71-90.88S117.35,58.09,117.35,58.09Z"/><path class="cls-3" d="M117.22,58.25C97.81,41.85,82.83,18.46,82.83,18.46,64-4.37,37.62,5.07,34.26,6.4l-.18.07-.17.08C30.61,8,5.45,20.34,8.67,49.76c0,0,6.3,27.05,4.51,52.4,0,0-3.93,41.78,8.26,63.5s43.28,53.24,93.91,33.4h0c49.53-22.44,48.63-66.7,41.58-90.59S117.22,58.25,117.22,58.25Z"/><path class="cls-4" d="M117.1,58.41C97.75,42.06,82.82,18.75,82.82,18.75,64.05-4,37.76,5.4,34.41,6.73l-.18.07-.17.08C30.77,8.35,5.69,20.63,8.9,50c0,0,6.28,27,4.5,52.23,0,0-3.92,41.64,8.23,63.29s43.13,53.06,93.6,33.29l0,0c49.37-22.36,48.47-66.48,41.44-90.28S117.1,58.41,117.1,58.41Z"/><path class="cls-5" d="M117,58.57C97.69,42.27,82.81,19,82.81,19,64.1-3.64,37.9,5.74,34.56,7.06l-.18.07-.18.08C30.93,8.68,5.93,20.91,9.13,50.14c0,0,6.27,26.86,4.49,52.05,0,0-3.91,41.5,8.2,63.08s43,52.89,93.29,33.19l0,0c49.2-22.29,48.31-66.26,41.3-90S117,58.57,117,58.57Z"/><path class="cls-6" d="M116.85,58.73c-19.22-16.25-34-39.4-34-39.4C64.15-3.27,38,6.07,34.71,7.39l-.18.07-.18.08C31.09,9,6.18,21.19,9.36,50.32c0,0,6.25,26.78,4.48,51.88,0,0-3.9,41.37,8.17,62.88s42.85,52.71,93,33.07h0c49-22.22,48.15-66,41.16-89.69S116.85,58.73,116.85,58.73Z"/><path class="cls-7" d="M116.72,58.89C97.57,42.7,82.79,19.62,82.79,19.62,64.2-2.91,38.17,6.41,34.86,7.72l-.18.07-.18.07C31.25,9.33,6.42,21.48,9.6,50.51c0,0,6.22,26.69,4.45,51.71,0,0-3.88,41.23,8.15,62.66s42.71,52.54,92.67,33l0,0c48.88-22.14,48-65.82,41-89.39S116.72,58.89,116.72,58.89Z"/><path class="cls-8" d="M116.6,59.05C97.51,42.91,82.77,19.91,82.77,19.91,64.25-2.54,38.31,6.74,35,8.05l-.17.07-.18.07C31.41,9.65,6.66,21.76,9.83,50.7c0,0,6.2,26.6,4.44,51.53,0,0-3.87,41.09,8.12,62.46S65,217.05,114.75,197.54h0c48.72-22.07,47.83-65.6,40.89-89.1S116.6,59.05,116.6,59.05Z"/><path class="cls-9" d="M116.47,59.2c-19-16.08-33.71-39-33.71-39C64.3-2.18,38.44,7.07,35.15,8.37L35,8.45l-.18.07C31.57,10,6.91,22,10.06,50.88c0,0,6.18,26.52,4.43,51.37,0,0-3.86,40.95,8.09,62.24S65,216.68,114.64,197.24l0,0c48.55-22,47.67-65.38,40.76-88.79S116.47,59.2,116.47,59.2Z"/><path class="cls-10" d="M116.35,59.36c-19-16-33.6-38.87-33.6-38.87C64.35-1.82,38.58,7.41,35.3,8.7l-.18.07L35,8.85C31.73,10.3,7.15,22.33,10.29,51.07c0,0,6.16,26.42,4.42,51.19,0,0-3.85,40.82,8.06,62s42.28,52,91.75,32.63h0c48.39-21.92,47.51-65.16,40.62-88.5S116.35,59.36,116.35,59.36Z"/><path class="cls-11" d="M116.23,59.52c-18.91-16-33.49-38.74-33.49-38.74C64.4-1.45,38.72,7.74,35.45,9l-.18.07-.17.08C31.89,10.62,7.39,22.61,10.53,51.26c0,0,6.14,26.33,4.39,51,0,0-3.83,40.67,8,61.82s42.14,51.84,91.44,32.53l0,0c48.23-21.84,47.35-64.94,40.49-88.2S116.23,59.52,116.23,59.52Z"/><path class="cls-12" d="M116.1,59.68C97.26,43.76,82.73,21.07,82.73,21.07,64.45-1.09,38.86,8.07,35.6,9.36l-.18.07-.17.08C32.05,11,7.63,22.89,10.76,51.44c0,0,6.12,26.25,4.38,50.85,0,0-3.82,40.54,8,61.62s42,51.66,91.13,32.41h0c48.07-21.78,47.2-64.72,40.35-87.9S116.1,59.68,116.1,59.68Z"/><path class="cls-13" d="M116,59.84C97.2,44,82.72,21.36,82.72,21.36,64.5-.72,39,8.41,35.74,9.69l-.17.07-.17.08C32.21,11.27,7.88,23.18,11,51.63c0,0,6.1,26.16,4.37,50.68,0,0-3.81,40.4,8,61.41S65.2,215.2,114.16,196h0c47.9-21.71,47-64.51,40.2-87.61S116,59.84,116,59.84Z"/><path class="cls-14" d="M115.85,60C97.14,44.19,82.7,21.65,82.7,21.65,64.55-.36,39.13,8.74,35.89,10l-.17.07-.17.08C32.37,11.59,8.12,23.46,11.22,51.82c0,0,6.08,26.06,4.36,50.5,0,0-3.8,40.26,8,61.2s41.71,51.31,90.51,32.2l0,0c47.74-21.63,46.87-64.28,40.07-87.31S115.85,60,115.85,60Z"/><path class="cls-15" d="M115.73,60.16c-18.65-15.76-33-38.22-33-38.22C64.6,0,39.27,9.08,36,10.35l-.17.07-.17.08C32.53,11.92,8.36,23.74,11.46,52c0,0,6.05,26,4.33,50.33,0,0-3.78,40.13,7.94,61s41.56,51.13,90.19,32.08h0c47.58-21.56,46.71-64.07,39.93-87S115.73,60.16,115.73,60.16Z"/><path class="cls-16" d="M115.6,60.32C97,44.61,82.68,22.23,82.68,22.23,64.65.37,39.4,9.41,36.19,10.68l-.17.07-.17.07C32.69,12.24,8.61,24,11.69,52.19c0,0,6,25.89,4.32,50.16,0,0-3.77,40,7.91,60.78s41.42,51,89.89,32l0,0c47.41-21.48,46.55-63.84,39.8-86.71S115.6,60.32,115.6,60.32Z"/><path class="cls-17" d="M115.48,60.48c-18.52-15.65-32.81-38-32.81-38C64.7.74,39.54,9.74,36.34,11l-.17.07-.17.07C32.85,12.57,8.85,24.31,11.92,52.38c0,0,6,25.8,4.31,50,0,0-3.76,39.86,7.88,60.58s41.28,50.78,89.58,31.86h0c47.25-21.41,46.39-63.63,39.66-86.41S115.48,60.48,115.48,60.48Z"/><path class="cls-18" d="M115.35,60.63C96.9,45,82.66,22.81,82.66,22.81,64.75,1.1,39.68,10.08,36.49,11.34l-.18.07-.16.07C33,12.89,9.09,24.6,12.15,52.56c0,0,6,25.72,4.3,49.82,0,0-3.75,39.71,7.85,60.36s41.14,50.61,89.27,31.76l0,0c47.09-21.33,46.23-63.4,39.53-86.11S115.35,60.63,115.35,60.63Z"/><path class="cls-19" d="M115.23,60.79C96.84,45.25,82.65,23.1,82.65,23.1,64.8,1.47,39.82,10.41,36.63,11.67l-.17.07-.16.07c-3.12,1.4-27,13.07-23.92,40.94,0,0,6,25.62,4.28,49.64,0,0-3.73,39.58,7.83,60.16s41,50.43,89,31.64h0c46.93-21.26,46.08-63.19,39.39-85.82S115.23,60.79,115.23,60.79Z"/><path class="cls-20" d="M115.1,61C96.78,45.46,82.64,23.39,82.64,23.39,64.85,1.83,40,10.74,36.78,12l-.17.07-.17.07c-3.1,1.4-26.86,13-23.82,40.8,0,0,6,25.53,4.26,49.47,0,0-3.72,39.44,7.8,59.94s40.85,50.26,88.65,31.54l0,0c46.76-21.18,45.91-63,39.25-85.51S115.1,61,115.1,61Z"/><path class="cls-21" d="M115,61.11C96.72,45.68,82.62,23.68,82.62,23.68,64.9,2.2,40.09,11.08,36.93,12.33l-.17.06-.17.08c-3.09,1.39-26.77,13-23.74,40.65,0,0,5.93,25.45,4.25,49.3,0,0-3.71,39.3,7.77,59.74s40.71,50.09,88.34,31.42h0c46.6-21.11,45.75-62.75,39.11-85.22S115,61.11,115,61.11Z"/><path class="cls-22" d="M114.85,61.27C96.65,45.89,82.61,24,82.61,24,65,2.56,40.23,11.41,37.08,12.66l-.17.06-.17.08c-3.08,1.39-26.68,12.93-23.66,40.51,0,0,5.91,25.36,4.24,49.12,0,0-3.7,39.17,7.74,59.53s40.57,49.92,88,31.32h0c46.43-21,45.59-62.53,39-84.93S114.85,61.27,114.85,61.27Z"/><path class="cls-23" d="M114.73,61.43C96.59,46.1,82.6,24.26,82.6,24.26,65,2.93,40.36,11.75,37.23,13l-.17.06-.17.08C33.82,14.51,10.31,26,13.31,53.5c0,0,5.9,25.26,4.22,49,0,0-3.67,39,7.72,59.32S65.68,211.51,113,193l0,0c46.27-21,45.43-62.31,38.84-84.62S114.73,61.43,114.73,61.43Z"/><path class="cls-24" d="M114.6,61.59c-18.07-15.28-32-37.05-32-37.05C65.06,3.29,40.5,12.08,37.37,13.32l-.16.06-.17.08C34,14.83,10.55,26.3,13.55,53.68c0,0,5.87,25.18,4.2,48.78,0,0-3.66,38.89,7.69,59.12s40.28,49.56,87.42,31.09h0c46.11-20.89,45.27-62.09,38.71-84.33S114.6,61.59,114.6,61.59Z"/><path class="cls-25" d="M38.62,17.37l.16-.07.16-.07C42.33,15.89,66.24,7.49,83.38,28c.36.15,14,21.26,31.45,36.26.12.29,29.29,24,35.47,45.59,6.24,21.75,6.67,61.61-37.93,81.8h0c-45.86,18-74.45-10.44-85.63-30.56-11-19.64-7.5-57.15-7.45-57.44,1.64-22.82-3.86-47.13-3.71-47.33C12.83,29.91,35.44,18.79,38.62,17.37Z"/><path class="cls-26" d="M40.19,21.28l.16-.07.16-.06c3.65-1.46,26.91-9.46,43.65,10.25.72.3,14.06,20.75,30.89,35.47.24.58,28.16,23.54,34,44.44,5.9,21.26,5.92,59.78-37.17,79.27l0,0c-44.6,17.52-72.78-10-83.85-30-10.57-19.08-7.32-55.18-7.21-55.77,1.62-22-3.52-45.48-3.21-45.87C15.11,33.53,36.91,22.75,40.19,21.28Z"/><path class="cls-27" d="M41.77,25.2l.15-.07.16-.06C46,23.5,68.61,15.9,85,34.83c1.08.45,14.11,20.24,30.32,34.68.37.87,27,23.06,32.45,43.29,5.57,20.78,5.18,58-36.4,76.75h0C68,206.61,40.15,180,29.21,160.06,19,141.55,22.08,106.83,22.26,106c1.59-21.26-3.19-43.84-2.72-44.43C17.39,37.14,38.37,26.7,41.77,25.2Z"/><path class="cls-28" d="M43.34,29.11l.16-.06.15-.07c4.16-1.67,26.14-8.88,42.09,9.28,1.43.6,14.17,19.73,29.75,33.9.49,1.15,25.9,22.57,30.94,42.13,5.23,20.29,4.44,56.13-35.64,74.22h0c-42.07,16.58-69.49-9.19-80.29-29-9.78-17.93-6.95-51.26-6.71-52.43,1.57-20.47-2.86-42.19-2.23-43C19.68,40.76,39.84,30.66,43.34,29.11Z"/><path class="cls-29" d="M44.92,33l.15-.07.15-.06c4.42-1.78,25.75-8.6,41.3,8.79,1.8.75,14.23,19.22,29.19,33.11.61,1.44,24.76,22.09,29.43,41,4.9,19.81,3.69,54.3-34.87,71.69h0C69.43,203.59,42.39,178.72,31.73,159c-9.4-17.35-6.76-49.29-6.47-50.75,1.54-19.69-2.52-40.55-1.73-41.52C22,44.38,41.3,34.62,44.92,33Z"/><path class="cls-30" d="M46.49,36.94l.15-.06.15-.06c4.67-1.9,25.37-8.32,40.52,8.3,2.16.9,14.29,18.71,28.62,32.32.74,1.73,23.62,21.62,27.92,39.84,4.56,19.32,3,52.46-34.11,69.15l0,0c-39.54,15.63-66.2-8.34-76.72-27.91-9-16.78-6.58-47.33-6.23-49.09,1.52-18.91-2.18-38.9-1.23-40.07C24.24,48,42.77,38.58,46.49,36.94Z"/><path class="cls-31" d="M48.07,40.86l.14-.07.15-.06c4.93-2,25-8,39.74,7.82,2.51,1.05,14.34,18.2,28.06,31.53.85,2,22.47,21.14,26.4,38.69,4.21,18.84,2.2,50.63-33.34,66.63h0C70.92,200.57,44.62,177.5,34.25,158c-8.63-16.2-6.4-45.37-6-47.41,1.5-18.13-1.84-37.26-.74-38.62C26.52,51.61,44.24,42.53,48.07,40.86Z"/><path class="cls-32" d="M49.64,44.77l.14-.06.15-.06C55.12,42.54,74.52,36.9,88.88,52c2.88,1.2,14.4,17.69,27.5,30.75,1,2.31,21.33,20.66,24.89,37.53,3.87,18.37,1.46,48.8-32.57,64.1h0c-37,14.69-62.93-7.48-73.16-26.85-8.26-15.62-6.21-43.4-5.75-45.74,1.47-17.34-1.5-35.6-.24-37.16C28.8,55.22,45.7,46.49,49.64,44.77Z"/><path class="cls-33" d="M51.22,48.69l.14-.06.14-.06C57,46.34,75.71,41.1,89.67,55.41c3.24,1.35,14.46,17.17,26.93,30,1.1,2.6,20.18,20.19,23.38,36.38,3.53,17.89.72,47-31.81,61.57l0,0C72.4,197.55,46.85,176.28,36.77,157c-7.88-15.05-6-41.44-5.51-44.07,1.45-16.56-1.16-34,.26-35.71C31.08,58.84,47.17,50.45,51.22,48.69Z"/><path class="cls-34" d="M52.79,52.6l.14-.06.13,0c5.71-2.34,23.83-7.18,37.4,6.35C94.05,60.34,105,75.5,116.82,88c1.22,2.89,19,19.72,21.87,35.23,3.18,17.42,0,45.15-31,59.05h0C73.14,196,48,175.67,38,156.51c-7.5-14.46-5.85-39.48-5.27-42.4,1.43-15.78-.82-32.31.75-34.26C33.36,62.46,48.63,54.4,52.79,52.6Z"/><path class="cls-35" d="M54.37,56.52l.13-.06.13-.06c6-2.44,23.44-6.89,36.61,5.87,4,1.65,14.58,16.15,25.8,28.38,1.34,3.18,17.88,19.26,20.35,34.08,2.84,17-.76,43.32-30.27,56.52h0c-33.22,13.27-58-6.2-67.81-25.25-7.13-13.88-5.67-37.52-5-40.73,1.41-15-.48-30.67,1.25-32.81C35.65,66.07,50.1,58.36,54.37,56.52Z"/><path class="cls-36" d="M55.94,60.43l.13-.06.13,0C62.43,57.77,79.26,53.71,92,65.7c4.32,1.8,14.63,15.64,25.24,27.6,1.46,3.46,16.71,18.78,18.83,32.92,2.48,16.48-1.51,41.49-29.5,54h0c-31.95,12.8-56.39-5.76-66-24.72-6.75-13.3-5.47-35.55-4.78-39.06,1.38-14.21-.14-29,1.75-31.35C37.93,69.69,51.56,62.32,55.94,60.43Z"/><path class="cls-37" d="M57.52,64.34l.12,0,.13-.05c6.49-2.67,22.67-6.33,35,4.89,4.67,2,14.68,15.13,24.67,26.81,1.58,3.75,15.54,18.32,17.32,31.77,2.12,16-2.25,39.66-28.74,51.46l0,0C75.36,191.51,51.28,173.85,41.8,155c-6.39-12.71-5.29-33.59-4.54-37.38,1.36-13.44.2-27.38,2.24-29.91C40.21,73.3,53,66.28,57.52,64.34Z"/><path class="cls-38" d="M59.09,68.26l.13-.05.12-.06c6.74-2.77,22.28-6,34.26,4.41,5,2.1,14.75,14.62,24.11,26,1.71,4,14.37,17.86,15.81,30.62,1.75,15.54-3,37.84-28,48.94h0c-29.42,11.85-53.14-4.9-62.47-23.66-6-12.13-5.11-31.63-4.29-35.72,1.33-12.65.53-25.72,2.73-28.45C42.49,76.92,54.49,70.23,59.09,68.26Z"/><path class="cls-39" d="M60.67,72.17l.12,0,.12-.05c7-2.88,21.9-5.76,33.48,3.92,5.4,2.25,14.8,14.11,23.54,25.23,1.83,4.34,13.19,17.4,14.3,29.47,1.38,15.08-3.74,36-27.2,46.41h0C76.85,188.49,53.48,172.65,44.32,154c-5.66-11.53-4.92-29.66-4-34,1.3-11.87.87-24.08,3.23-27C44.77,80.54,56,74.19,60.67,72.17Z"/><path class="cls-40" d="M62.24,76.09l.12,0,.12-.05c7.26-3,21.51-5.48,32.7,3.43,5.75,2.4,14.85,13.6,23,24.45,1.95,4.62,12,16.93,12.79,28.31,1,14.61-4.48,34.18-26.44,43.88h0c-26.89,10.91-49.9-4-58.9-22.6-5.3-10.94-4.74-27.69-3.81-32.36C43.05,110,43,98.67,45.49,95.55,47.05,84.15,57.43,78.15,62.24,76.09Z"/><path class="cls-41" d="M63.82,80l.11,0,.12,0C71.56,76.8,85.17,74.72,96,82.85c6.12,2.55,14.92,13.09,22.41,23.66,2.08,4.91,10.82,16.47,11.28,27.16C130.26,147.82,124.43,166,104,175h0C78.33,185.47,55.66,171.45,46.84,153c-4.94-10.36-4.56-25.74-3.57-30.7,1.26-10.31,1.55-20.79,4.22-24.1C49.33,87.77,58.89,82.1,63.82,80Z"/><path class="cls-42" d="M65.39,83.92l.11,0,.12-.05c7.77-3.21,20.74-4.9,31.13,2.46,6.48,2.7,15,12.58,21.85,22.87,2.19,5.2,9.61,16,9.76,26,.2,13.68-6,30.52-24.91,38.82h0c-24.36,10-46.68-3.14-55.33-21.54-4.59-9.76-4.38-23.77-3.33-29,1.24-9.53,1.89-19.15,4.72-22.65C51.61,91.38,60.36,86.06,65.39,83.92Z"/><path class="cls-43" d="M67,87.83l.11,0,.11-.05c8-3.32,20.35-4.62,30.35,2,6.83,2.85,15,12.06,21.28,22.08,2.31,5.49,8.4,15.55,8.25,24.87-.22,13.22-6.71,28.69-24.14,36.29h0c-23.1,9.49-45.09-2.69-53.55-21-4.24-9.17-4.19-21.81-3.09-27.36,1.21-8.74,2.23-17.5,5.21-21.2C53.9,95,61.82,90,67,87.83Z"/><path class="cls-44" d="M68.54,91.75l.11,0,.1,0c8.3-3.44,20-4.34,29.57,1.48,7.2,3,15.09,11.55,20.72,21.3,2.44,5.77,7.17,15.08,6.73,23.71-.64,12.75-7.45,26.86-23.37,33.76h0c-21.82,9-43.49-2.23-51.77-20.47-3.88-8.57-4-19.85-2.84-25.68,1.19-8,2.57-15.86,5.71-19.75C56.18,98.62,63.29,94,68.54,91.75Z"/><path class="cls-45" d="M70.12,95.66l.1,0,.1-.05c8.55-3.54,19.59-4,28.79,1,7.56,3.15,15.14,11,20.15,20.51,2.56,6.06,5.94,14.62,5.22,22.56a37.15,37.15,0,0,1-22.6,31.24h0a38.32,38.32,0,0,1-50-19.95c-3.54-8-3.82-17.88-2.6-24,1.17-7.18,2.91-14.2,6.21-18.29C58.46,102.23,64.75,97.93,70.12,95.66Z"/><path class="cls-46" d="M71.69,99.58l.1,0,.1,0a34.48,34.48,0,0,1,28,.51c7.91,3.3,15.2,10.53,19.58,19.72,2.68,6.36,4.69,14.14,3.71,21.41a36.21,36.21,0,0,1-21.83,28.71h0a36.89,36.89,0,0,1-48.21-19.41,39.36,39.36,0,0,1-2.36-22.34c1.14-6.4,3.25-12.56,6.7-16.85C60.74,105.85,66.22,101.89,71.69,99.58Z"/><circle class="cls-47" cx="87.05" cy="136.15" r="35.45"/></g><circle id="pit" class="cls-48" cx="87.13" cy="136.07" r="35.52"/><path id="highlight" class="cls-49" d="M110.82,134.15c-1.44-1.83-3.3-2.85-4.56-2.63h0l-.06,0a1.4,1.4,0,0,0-.48.18c-1.75.86-2.15,3.25-2.15,3.25,0,4.52-6.84,17.27-6.84,17.27-1.22,5.7,8.9,6.49,13.9-2.88a17,17,0,0,0,1.78-12h0A8,8,0,0,0,110.82,134.15Z"/><g id="drum2"><path class="cls-50" d="M69.48,55c-6.79-1.58-12.76-.91-13.31,1.48s4.5,5.62,11.3,7.2,12.76.91,13.32-1.48S76.28,56.54,69.48,55Zm-1.57,6.13C62.58,59.85,58.45,58,58.69,57s4.74-.82,10.07.42,9.46,3,9.23,4.06S73.25,62.32,67.91,61.09Z"/><path class="cls-50" d="M80.42,64.28c-1.09.78-4.6.86-4.6.86l-.76,3.27a.71.71,0,0,1,.27.74.72.72,0,0,1-1.4-.33.73.73,0,0,1,.57-.54l.7-3c-1.88.45-8.14-1.23-8.14-1.23l-.83,3.56a.73.73,0,0,1,.17.64.72.72,0,0,1-1.4-.32.73.73,0,0,1,.57-.55l.82-3.55c-2.08.1-6.86-2.19-6.86-2.19l-1.12,3a.7.7,0,0,1,.13.61.71.71,0,0,1-.86.54.73.73,0,0,1-.53-.87.72.72,0,0,1,.76-.55l1.23-3a9.6,9.6,0,0,1-4-3s-3.74,11.66-3.77,18.14,1.81,17.23,1.81,17.23a27.68,27.68,0,0,0,13.51,3.13s1.38-.85,7.4-11.54A51,51,0,0,0,80.42,64.28Z"/></g></g></svg>