<?xml version="1.0" encoding="UTF-8"?><svg id="a" xmlns="http://www.w3.org/2000/svg" viewBox="0 0 155 207"><defs><style>.i{fill:#cf8240;}.j{fill:#d6d884;}.k{fill:#a2bb58;}.l{fill:#676a3c;}.m{fill:#e2b58e;}.n{fill:#3a3a3c;}</style></defs><g id="b"><path id="c" class="l" d="M110.6,58.37c-19.48-16.46-34.51-39.93-34.51-39.93C57.19-4.47,30.71,5,27.34,6.33c0,0-.06,.02-.18,.07-.12,.05-.18,.08-.18,.08C23.68,7.97-1.58,20.33,1.65,49.85c0,0,6.33,27.14,4.53,52.59,0,0-3.95,41.93,8.29,63.73,12.24,21.79,43.43,53.43,94.24,33.52l.04-.02c49.71-22.52,48.81-66.94,41.73-90.91-7.08-23.98-39.88-50.39-39.88-50.39Z"/><path id="d" class="k" d="M109.14,60.11c-18.75-15.84-33.21-38.43-33.21-38.43C57.74-.37,32.26,8.75,29.02,10.03c0,0-.06,.02-.17,.07-.11,.05-.17,.08-.17,.08-3.18,1.43-27.48,13.32-24.37,41.73,0,0,6.09,26.12,4.36,50.6,0,0-3.8,40.35,7.97,61.32,11.77,20.97,41.79,51.41,90.69,32.26h.03c47.84-21.69,46.97-64.43,40.15-87.5-6.81-23.07-38.38-48.49-38.38-48.49Z"/><path id="e" class="j" d="M96.22,62.81s-20.6-20.24-30.53-35.46c-5.3-8.13-14.38-9.91-21.71-9.81-3.78-.07-7.63,.63-11.32,2.19-4.53,1.91-8.29,4.88-11.12,8.51-4.44,5.11-8.13,12.13-6.26,20.46,3.98,17.73,4.11,46.61,4.11,46.61,0,0-5.73,56.48,13.66,75.7,19.4,19.22,43.08,25.81,70.11,15.52,26.23-12.19,38.01-33.81,37.77-61.12-.24-27.31-44.71-62.6-44.71-62.6Z"/><circle id="f" class="i" cx="77.87" cy="132.92" r="35.34"/><path id="g" class="m" d="M105.05,127.34c-1.43-1.81-3.28-2.84-4.53-2.62h0s-.04,0-.06,0c-.17,.04-.34,.1-.48,.18-1.74,.85-2.14,3.23-2.14,3.23,.02,4.49-6.8,17.18-6.8,17.18-1.22,5.67,8.86,6.46,13.83-2.86,2.53-4.75,2.46-8.96,1.78-11.95h-.01c-.21-.99-.74-2.12-1.58-3.18Z"/><path id="h" class="n" d="M65.52,37.61l-5.07-1.74c-.74-.25-1.54,.14-1.8,.88l-2.26,6.61c-.25,.74,.14,1.54,.88,1.8h0l-4.96,14.48c-1.56-.05-3.16,.28-4.68,1.02-3.93,1.92-6.01,6.04-5.37,9.95-.27,.11-.53,.23-.8,.35-6.49,3.18-9.18,11.02-6,17.51,3.18,6.49,11.02,9.18,17.51,6,6.49-3.18,9.18-11.02,6-17.51-.29-.59-.62-1.14-.98-1.67,2.97-2.74,3.99-7.06,2.21-10.7-.75-1.54-1.9-2.75-3.28-3.59l4.89-14.28,.51,.18c.74,.25,1.54-.14,1.8-.88l2.26-6.61c.25-.74-.14-1.54-.88-1.8Zm-14.23,45.61l-8.57-2.94,.49-1.43,8.57,2.94-.49,1.43Zm-.07-5.53c-2,.98-4.41,.15-5.39-1.85s-.15-4.41,1.85-5.39,4.41-.15,5.39,1.85,.15,4.41-1.85,5.39Z"/></g></svg>