<?xml version="1.0" encoding="UTF-8"?><svg id="a" xmlns="http://www.w3.org/2000/svg" viewBox="0 0 155 207"><defs><style>.j{fill:#eace2d;}.k{fill:#cf8240;}.l{fill:#a2bb58;}.m{fill:#676a3c;}.n{fill:#e2b58e;}.o{fill:#3a3a3c;}</style></defs><g id="b"><g id="c"><path id="d" class="m" d="M111.32,57.3c-19.61-16.57-34.74-40.2-34.74-40.2C57.55-5.96,30.91,3.58,27.51,4.92c0,0-.06,.02-.18,.07-.12,.05-.18,.08-.18,.08C23.83,6.57-1.6,19.01,1.66,48.73c0,0,6.37,27.32,4.56,52.93,0,0-3.98,42.2,8.34,64.14,12.32,21.94,43.72,53.78,94.86,33.74l.04-.02c50.04-22.67,49.13-67.38,42-91.51-7.13-24.13-40.14-50.72-40.14-50.72Z"/><path id="e" class="l" d="M109.85,59.05c-18.87-15.95-33.43-38.68-33.43-38.68C58.11-1.82,32.47,7.36,29.2,8.65c0,0-.06,.02-.18,.07-.11,.05-.17,.08-.17,.08-3.2,1.44-27.66,13.41-24.53,42.01,0,0,6.13,26.29,4.39,50.94,0,0-3.83,40.61,8.03,61.73,11.85,21.11,42.07,51.75,91.28,32.47h.04c48.15-21.83,47.27-64.85,40.42-88.07-6.86-23.22-38.63-48.81-38.63-48.81Z"/><path id="f" class="j" d="M96.84,61.77s-20.74-20.37-30.73-35.69c-5.33-8.18-14.48-9.98-21.85-9.88-3.8-.07-7.68,.64-11.4,2.21-4.56,1.92-8.34,4.91-11.19,8.56-4.47,5.14-8.18,12.21-6.3,20.59,4.01,17.85,4.14,46.92,4.14,46.92,0,0-5.77,56.85,13.75,76.2,19.52,19.35,43.36,25.98,70.57,15.62,26.4-12.27,38.26-34.03,38.01-61.52-.24-27.49-45-63.01-45-63.01Z"/><circle id="g" class="k" cx="82.2" cy="134.96" r="35.57"/><path id="h" class="n" d="M109.55,129.35c-1.44-1.83-3.3-2.85-4.56-2.63h0s-.04,0-.06,0c-.18,.04-.34,.1-.49,.19-1.75,.86-2.15,3.25-2.15,3.25,.02,4.52-6.85,17.29-6.85,17.29-1.23,5.71,8.91,6.5,13.92-2.88,2.55-4.78,2.47-9.02,1.79-12.03h-.01c-.21-1-.75-2.14-1.59-3.2Z"/></g><g id="i"><path class="o" d="M48.45,67.49s1.78,2.27,5.15,3.09c3.37,.83,5.78,.5,5.78,.5l-10.21,25.8s-1.49,3-5,2.07-2.85-4.64-2.85-4.64l7.12-26.82Z"/><g><path class="o" d="M68.52,60.91c1.42-5.64-1.74-11.51-7.36-13.35-5.61-1.84-11.64,1-13.84,6.39l21.2,6.96Z"/><path class="o" d="M46.52,57.33c-.39,5.02,2.67,9.85,7.66,11.49,5,1.64,10.32-.43,12.98-4.71l-20.64-6.78Z"/></g></g></g></svg>