<?xml version="1.0" encoding="UTF-8"?><svg id="a" xmlns="http://www.w3.org/2000/svg" viewBox="0 0 155 207"><defs><style>.j{fill:#cf8240;}.k{fill:#a2bb58;}.l{fill:#676a3c;}.m{fill:#e2b58e;}.n{fill:#3a3a3c;}.o{fill:#d1cd3b;}</style></defs><g id="b"><g id="c"><path id="d" class="l" d="M111.28,57.45c-19.6-16.57-34.73-40.18-34.73-40.18C57.53-5.79,30.9,3.74,27.51,5.09c0,0-.06,.02-.18,.07-.12,.05-.18,.08-.18,.08C23.82,6.73-1.59,19.17,1.66,48.88c0,0,6.37,27.31,4.56,52.92,0,0-3.98,42.19,8.34,64.13,12.31,21.93,43.7,53.76,94.83,33.73l.04-.02c50.02-22.66,49.11-67.36,41.99-91.48-7.13-24.13-40.13-50.71-40.13-50.71Z"/><path id="e" class="k" d="M109.81,59.2c-18.86-15.94-33.42-38.67-33.42-38.67C58.09-1.65,32.46,7.52,29.19,8.81c0,0-.06,.02-.17,.07-.11,.05-.17,.08-.17,.08-3.2,1.44-27.66,13.4-24.53,41.99,0,0,6.13,26.28,4.39,50.92,0,0-3.83,40.6,8.02,61.71,11.85,21.1,42.05,51.74,91.26,32.46h.04c48.13-21.82,47.26-64.83,40.4-88.04-6.86-23.22-38.61-48.8-38.61-48.8Z"/><path id="f" class="o" d="M96.81,61.92s-20.73-20.36-30.72-35.68c-5.33-8.18-14.47-9.97-21.85-9.87-3.8-.07-7.67,.64-11.39,2.21-4.55,1.92-8.34,4.91-11.19,8.56-4.47,5.14-8.18,12.2-6.3,20.58,4.01,17.84,4.14,46.9,4.14,46.9,0,0-5.77,56.83,13.75,76.17,19.52,19.34,43.35,25.97,70.55,15.62,26.4-12.27,38.24-34.02,38-61.5-.24-27.48-44.99-62.99-44.99-62.99Z"/><circle id="g" class="j" cx="82.18" cy="135.08" r="35.56"/><path id="h" class="m" d="M109.52,129.47c-1.44-1.83-3.3-2.85-4.56-2.63h0s-.04,0-.06,0c-.18,.04-.34,.1-.49,.19-1.75,.86-2.15,3.25-2.15,3.25,.02,4.52-6.84,17.29-6.84,17.29-1.23,5.71,8.91,6.5,13.91-2.88,2.55-4.78,2.47-9.01,1.79-12.02h-.01c-.21-1-.75-2.14-1.59-3.2Z"/></g><g id="i"><path class="n" d="M34.28,83.02s7.89,3.89,23.75-2.37c15.86-6.27,20.67-13.73,20.67-13.73l5,13.46s.55,6.59-19.76,14.63c-20.32,8.05-24.88,.84-24.88,.84l-4.76-12.83Z"/><path class="n" d="M59.56,49.28c.18-.57-.13-1.18-.7-1.36-.57-.18-1.18,.13-1.36,.7l-4.96,15.52-13.97-8.65c-.51-.32-1.18-.16-1.49,.35-.32,.51-.16,1.18,.35,1.49l14.43,8.94-1.8,5.62c-.12,.02-.24,.05-.36,.1-1.2,.44-1.8,1.77-1.36,2.97s1.77,1.8,2.97,1.36,1.8-1.77,1.36-2.97c-.12-.32-.3-.6-.53-.83l1.62-5.07,4.44,2.75c-.04,.34,0,.7,.13,1.05,.44,1.2,1.77,1.8,2.97,1.36s1.8-1.77,1.36-2.97-1.77-1.8-2.97-1.36c-.09,.04-.18,.08-.27,.12l-4.98-3.09,5.12-16.04Z"/><path class="n" d="M56.76,61.6l-.17,.98-.16,.97c9.57-2.95,17.6-3.08,18.72-.06,1.26,3.4-6.73,9.51-17.86,13.64-11.13,4.13-21.17,4.72-22.43,1.32-1.13-3.04,5.15-8.25,14.44-12.27l-.75-.62-.78-.65c-10.05,4.54-16.66,10.59-15.25,14.39,1.6,4.32,12.97,4.09,25.38-.52,12.41-4.61,21.18-11.85,19.57-16.17-1.4-3.77-10.24-4.07-20.72-1.03Z"/></g></g></svg>