<?xml version="1.0" encoding="UTF-8"?><svg id="a" xmlns="http://www.w3.org/2000/svg" viewBox="0 0 155 207"><defs><style>.j{fill:#fff;}.k{fill:#bc7b4b;}.l{fill:#1e1e12;}.m{fill:#441f06;}.n{fill:#8c8011;}.o{fill:#3a3a3c;}.p{fill:#4c5915;}</style></defs><g id="b"><g id="c"><path id="d" class="l" d="M111.28,57.45c-19.6-16.57-34.73-40.18-34.73-40.18C57.53-5.79,30.9,3.74,27.51,5.09c0,0-.06,.02-.18,.07-.12,.05-.18,.08-.18,.08C23.82,6.73-1.59,19.17,1.66,48.88c0,0,6.37,27.31,4.56,52.92,0,0-3.98,42.19,8.34,64.13,12.31,21.93,43.7,53.76,94.83,33.73l.04-.02c50.02-22.66,49.11-67.36,41.99-91.48-7.13-24.13-40.13-50.71-40.13-50.71Z"/><path id="e" class="p" d="M109.81,59.2c-18.86-15.94-33.42-38.67-33.42-38.67C58.09-1.65,32.46,7.52,29.19,8.81c0,0-.06,.02-.17,.07-.11,.05-.17,.08-.17,.08-3.2,1.44-27.66,13.4-24.53,41.99,0,0,6.13,26.28,4.39,50.92,0,0-3.83,40.6,8.02,61.71,11.85,21.1,42.05,51.74,91.26,32.46h.04c48.13-21.82,47.26-64.83,40.4-88.04-6.86-23.22-38.61-48.8-38.61-48.8Z"/><path id="f" class="n" d="M96.81,61.92s-20.73-20.36-30.72-35.68c-5.33-8.18-14.47-9.97-21.85-9.87-3.8-.07-7.67,.64-11.39,2.21-4.55,1.92-8.34,4.91-11.19,8.56-4.47,5.14-8.18,12.2-6.3,20.58,4.01,17.84,4.14,46.9,4.14,46.9,0,0-5.77,56.83,13.75,76.17,19.52,19.34,43.35,25.97,70.55,15.62,26.4-12.27,38.24-34.02,38-61.5-.24-27.48-44.99-62.99-44.99-62.99Z"/><circle id="g" class="m" cx="82.18" cy="135.08" r="35.56"/><path id="h" class="k" d="M109.52,129.47c-1.44-1.83-3.3-2.85-4.56-2.63h0s-.04,0-.06,0c-.18,.04-.34,.1-.49,.19-1.75,.86-2.15,3.25-2.15,3.25,.02,4.52-6.84,17.29-6.84,17.29-1.23,5.71,8.91,6.5,13.91-2.88,2.55-4.78,2.47-9.01,1.79-12.02h-.01c-.21-1-.75-2.14-1.59-3.2Z"/></g><g id="i"><rect class="o" x="26.42" y="66.09" width="64.52" height="29.05" rx="13.34" ry="13.34" transform="translate(-26.34 28.52) rotate(-22.45)"/><path class="j" d="M85.58,69.69l-4.13,1.71s-.04,.04-.03,.06l2.5,6.04-2.41,1-2.51-6.08-4.22,1.74,2.51,6.08-3.02,1.25-2.51-6.08-4.22,1.74,2.51,6.08-2.71,1.12-2.51-6.08-4.22,1.74,2.51,6.08-3.02,1.25-2.51-6.08-4.22,1.74,2.51,6.08-2.71,1.12-2.51-6.08-4.22,1.74,2.51,6.08-3.02,1.25-2.51-6.08-4.22,1.74,2.51,6.08-2.71,1.12-2.51-6.08-4.22,1.74,3.14,7.61c.19,.47,.79,.67,1.32,.45l.54-.22,2.71-1.12,2.71-1.12,4.22-1.74,3.02-1.25,4.22-1.74,2.71-1.12,4.22-1.74,3.02-1.25,4.22-1.74,2.71-1.12,4.22-1.74,3.02-1.25,4.22-1.74,2.46-1.02,1.46-.6,1.76-.73c.53-.22,.8-.77,.61-1.23l-3.13-7.58s-.04-.03-.06-.02Z"/></g></g></svg>