<?xml version="1.0" encoding="UTF-8"?><svg id="a" xmlns="http://www.w3.org/2000/svg" viewBox="0 0 155 207"><defs><style>.j{fill:#fff;}.k{fill:#83934a;}.l{fill:#d3a229;}.m{fill:#a86331;}.n{fill:#e2b58e;}.o{fill:#3a3a3c;}.p{fill:#50512e;}</style></defs><g id="b"><g id="c"><path id="d" class="p" d="M110.94,57.88c-19.58-16.55-34.69-40.14-34.69-40.14C57.25-5.3,30.64,4.23,27.25,5.57c0,0-.06,.02-.18,.07-.12,.05-.18,.08-.18,.08C23.56,7.21-1.82,19.63,1.43,49.31c0,0,6.36,27.28,4.56,52.86,0,0-3.97,42.15,8.33,64.06,12.3,21.91,43.66,53.71,94.74,33.7l.04-.02c49.97-22.64,49.06-67.29,41.94-91.38-7.12-24.1-40.09-50.66-40.09-50.66Z"/><path id="e" class="k" d="M109.47,59.62c-18.85-15.93-33.39-38.63-33.39-38.63C57.8-1.17,32.19,8,28.93,9.29c0,0-.06,.02-.17,.07-.11,.05-.17,.08-.17,.08C25.39,10.87,.96,22.82,4.09,51.38c0,0,6.12,26.26,4.39,50.87,0,0-3.82,40.56,8.02,61.64,11.84,21.08,42.01,51.68,91.16,32.43h.03c48.08-21.8,47.21-64.77,40.36-87.95-6.85-23.19-38.58-48.75-38.58-48.75Z"/><path id="f" class="l" d="M96.48,62.34s-20.71-20.34-30.69-35.65c-5.33-8.17-14.46-9.96-21.82-9.86-3.8-.07-7.67,.64-11.38,2.2-4.55,1.92-8.33,4.91-11.18,8.55-4.46,5.13-8.17,12.19-6.29,20.56,4,17.83,4.13,46.86,4.13,46.86,0,0-5.76,56.77,13.73,76.1,19.5,19.32,43.3,25.95,70.48,15.6,26.37-12.25,38.21-33.99,37.96-61.44-.24-27.45-44.94-62.92-44.94-62.92Z"/><circle id="g" class="m" cx="81.87" cy="135.43" r="35.53"/><path id="h" class="n" d="M109.18,129.83c-1.44-1.82-3.3-2.85-4.56-2.63h0s-.04,0-.06,0c-.17,.04-.34,.1-.48,.18-1.74,.86-2.15,3.25-2.15,3.25,.02,4.52-6.84,17.27-6.84,17.27-1.23,5.7,8.9,6.49,13.9-2.87,2.55-4.77,2.47-9,1.78-12.01h-.01c-.21-1-.75-2.14-1.58-3.2Z"/></g><g id="i"><path class="o" d="M70.82,59.48l-2.58,1.02s-2.45,.85-3.69,.92c-5.11,.29-9.63-3.24-11.22-8.32-2.95-5.96-10.32-8.65-16.98-6.02-6.99,2.77-10.55,10.37-7.93,16.97l12.06,30.49,44.32-17.54-6.06-15.31c-1.8-2.37-5.02-3.36-7.93-2.21Z"/><path class="j" d="M78.93,68.4l-3.14,1.24s-.03,.03-.02,.05l2.07,5.24-1.83,.73-2.09-5.27-3.21,1.27,2.09,5.27-2.29,.91-2.09-5.27-3.21,1.27,2.09,5.27-2.06,.82-2.09-5.27-3.21,1.27,2.09,5.27-2.29,.91-2.09-5.27-3.21,1.27,2.09,5.27-2.06,.82-2.09-5.27-3.21,1.27,2.09,5.27-2.29,.91-2.09-5.27-3.21,1.27,2.09,5.27-2.06,.82-2.09-5.27-3.21,1.27,2.61,6.6c.16,.41,.62,.61,1.03,.45l.41-.16,2.06-.82,2.06-.82,3.21-1.27,2.29-.91,3.21-1.27,2.06-.82,3.21-1.27,2.29-.91,3.21-1.27,2.06-.82,3.21-1.27,2.29-.91,3.21-1.27,1.87-.74,1.11-.44,1.34-.53c.4-.16,.6-.61,.44-1.01l-2.6-6.57s-.03-.03-.05-.02Z"/></g></g></svg>