<?xml version="1.0" encoding="UTF-8"?><svg id="a" xmlns="http://www.w3.org/2000/svg" viewBox="0 0 155 207"><defs><style>.g{stroke:#717841;}.g,.h,.i,.j,.k,.l,.m,.n,.o,.p,.q,.r,.s,.t,.u,.v,.w,.x,.y,.a`,.aa,.ab,.ac,.ad,.ae,.af,.ag,.ah,.ai,.aj,.ak,.al,.am,.an,.ao,.ap,.aq,.ar,.as,.at,.au,.av,.aw,.ax,.ay,.b`,.ba{fill:none;}.g,.h,.i,.j,.k,.l,.m,.n,.o,.p,.q,.r,.s,.t,.u,.v,.w,.x,.y,.a`,.aa,.ab,.ac,.ad,.af,.ag,.ah,.ai,.aj,.ak,.al,.am,.an,.ao,.ap,.aq,.ar,.as,.au,.av,.aw,.ax,.ay,.b`,.ba{stroke-miterlimit:10;}.h{stroke:#798345;}.i{stroke:#86944b;}.j{stroke:#9fb757;}.k{stroke:#7e8a47;}.l{stroke:#a9bf5e;}.m{stroke:#a2bb58;}.n{stroke:#b0c363;}.o{stroke:#9db456;}.p{stroke:#d1d580;}.q{stroke:#cbd27a;}.r{stroke:#b2c465;}.s{stroke:#9ab054;}.t{stroke:#bdca6f;}.u{stroke:#cdd37c;}.v{stroke:#c4ce75;}.w{stroke:#95a952;}.x{stroke:#adc162;}.y{stroke:#a7be5c;}.a`{stroke:#abc060;}.aa{stroke:#7c8646;}.ab{stroke:#6c713e;}.bb{fill:#cf8240;}.ac{stroke:#818d48;}.ad{stroke:#d4d782;}.ae{stroke:#6a6e3d;}.ae,.at{stroke-miterlimit:10;}.af{stroke:#b4c567;}.ag{stroke:#98ad53;}.ah{stroke:#c8d079;}.ai{stroke:#d6d884;}.aj{stroke:#cfd47e;}.ak{stroke:#676a3c;}.al{stroke:#93a651;}.am{stroke:#b6c669;}.an{stroke:#8d9f4e;}.ao{stroke:#88984c;}.ap{stroke:#bbc96d;}.aq{stroke:#839149;}.bc{fill:#e2b58e;}.ar{stroke:#6f7540;}.as{stroke:#90a24f;}.bd{fill:#3a3a3c;}.at{stroke:#a4bc5a;}.au{stroke:#c6cf77;}.av{stroke:#747c42;}.aw{stroke:#c2cd73;}.ax{stroke:#bfcb71;}.ay{stroke:#8b9b4d;}.b`{stroke:#767f43;}.ba{stroke:#b9c86b;}</style></defs><g id="b"><g id="c"><path class="ak" d="M111.47,56.93c-19.54-16.51-34.62-40.05-34.62-40.05C57.9-6.1,31.35,3.4,27.97,4.74c0,0-.06,.02-.18,.07-.12,.05-.18,.08-.18,.08C24.29,6.38-1.04,18.78,2.2,48.39c0,0,6.35,27.22,4.55,52.74,0,0-3.96,42.05,8.31,63.92,12.27,21.86,43.56,53.59,94.52,33.62l.04-.02c49.86-22.59,48.95-67.14,41.85-91.18-7.1-24.05-40-50.54-40-50.54Z"/><path class="ae" d="M111.35,57.09c-19.48-16.46-34.5-39.92-34.5-39.92C57.95-5.73,31.48,3.74,28.11,5.07c0,0-.06,.02-.18,.07s-.18,.08-.18,.08C24.45,6.71-.8,19.06,2.43,48.58c0,0,6.33,27.13,4.53,52.57,0,0-3.95,41.91,8.28,63.71,12.23,21.79,43.42,53.41,94.21,33.51l.04-.02c49.69-22.51,48.79-66.92,41.71-90.88-7.08-23.97-39.87-50.38-39.87-50.38Z"/><path class="ab" d="M111.22,57.25c-19.41-16.41-34.39-39.79-34.39-39.79C58-5.37,31.62,4.07,28.26,5.4c0,0-.06,.02-.18,.07s-.18,.08-.18,.08C24.61,7.03-.55,19.34,2.67,48.76c0,0,6.31,27.05,4.52,52.4,0,0-3.94,41.78,8.26,63.5,12.19,21.72,43.28,53.24,93.91,33.4l.04-.02c49.53-22.44,48.63-66.7,41.58-90.58-7.06-23.89-39.74-50.21-39.74-50.21Z"/><path class="ar" d="M111.1,57.41c-19.35-16.35-34.28-39.66-34.28-39.66C58.05-5,31.76,4.4,28.41,5.73c0,0-.06,.02-.18,.07s-.18,.08-.18,.08C24.77,7.35-.31,19.63,2.9,48.95c0,0,6.29,26.96,4.5,52.23,0,0-3.93,41.64,8.23,63.29,12.15,21.65,43.13,53.06,93.6,33.29l.04-.02c49.37-22.37,48.47-66.48,41.44-90.29-7.03-23.81-39.61-50.05-39.61-50.05Z"/><path class="g" d="M110.97,57.57c-19.28-16.3-34.16-39.53-34.16-39.53C58.1-4.64,31.9,4.74,28.56,6.06c0,0-.06,.02-.18,.07s-.18,.08-.18,.08C24.93,7.68-.07,19.91,3.13,49.14c0,0,6.26,26.87,4.49,52.05,0,0-3.91,41.5,8.2,63.08,12.11,21.57,42.99,52.89,93.29,33.18l.04-.02c49.21-22.29,48.31-66.26,41.3-89.99-7.01-23.73-39.47-49.88-39.47-49.88Z"/><path class="av" d="M110.85,57.73c-19.22-16.24-34.05-39.4-34.05-39.4C58.15-4.27,32.03,5.07,28.71,6.39c0,0-.06,.02-.18,.07s-.18,.08-.18,.08C25.09,8,.18,20.19,3.36,49.32c0,0,6.24,26.78,4.47,51.88,0,0-3.9,41.36,8.18,62.87,12.07,21.5,42.85,52.71,92.98,33.07l.04-.02c49.04-22.22,48.15-66.04,41.17-89.69-6.99-23.66-39.34-49.72-39.34-49.72Z"/><path class="b`" d="M110.72,57.89c-19.16-16.19-33.94-39.27-33.94-39.27C58.2-3.91,32.17,5.41,28.86,6.72c0,0-.06,.02-.18,.07s-.17,.08-.17,.08C25.25,8.33,.42,20.48,3.6,49.51c0,0,6.22,26.69,4.46,51.71,0,0-3.89,41.23,8.15,62.66,12.03,21.43,42.71,52.54,92.67,32.96l.04-.02c48.88-22.14,47.99-65.82,41.03-89.39-6.96-23.58-39.21-49.55-39.21-49.55Z"/><path class="h" d="M110.6,58.05c-19.09-16.14-33.83-39.14-33.83-39.14C58.25-3.54,32.31,5.74,29,7.05c0,0-.06,.02-.18,.07s-.17,.08-.17,.08C25.41,8.65,.66,20.76,3.83,49.7c0,0,6.2,26.6,4.44,51.54,0,0-3.87,41.09,8.12,62.45,11.99,21.36,42.56,52.36,92.36,32.85h.04c48.72-22.09,47.83-65.62,40.89-89.11-6.94-23.5-39.08-49.39-39.08-49.39Z"/><path class="aa" d="M110.47,58.2c-19.03-16.08-33.71-39.01-33.71-39.01C58.3-3.18,32.44,6.07,29.15,7.37c0,0-.06,.02-.18,.07s-.17,.08-.17,.08C25.57,8.97,.91,21.04,4.06,49.88c0,0,6.18,26.51,4.43,51.36,0,0-3.86,40.95,8.09,62.25,11.95,21.29,42.42,52.19,92.05,32.74h.04c48.55-22.01,47.67-65.4,40.76-88.81-6.92-23.42-38.95-49.22-38.95-49.22Z"/><path class="k" d="M110.35,58.36c-18.97-16.03-33.6-38.87-33.6-38.87C58.35-2.82,32.58,6.41,29.3,7.7c0,0-.06,.02-.18,.07s-.17,.08-.17,.08c-3.22,1.45-27.8,13.48-24.66,42.22,0,0,6.16,26.42,4.41,51.19,0,0-3.85,40.81,8.07,62.04,11.91,21.22,42.28,52.01,91.74,32.63h.04c48.39-21.94,47.51-65.18,40.62-88.51-6.89-23.34-38.82-49.06-38.82-49.06Z"/><path class="ac" d="M110.23,58.52c-18.9-15.97-33.49-38.74-33.49-38.74C58.4-2.45,32.72,6.74,29.45,8.03c0,0-.06,.02-.18,.07s-.17,.08-.17,.08c-3.21,1.44-27.71,13.43-24.58,42.08,0,0,6.14,26.33,4.4,51.02,0,0-3.84,40.68,8.04,61.83,11.87,21.15,42.14,51.84,91.43,32.52h.04c48.23-21.86,47.35-64.96,40.48-88.22-6.87-23.26-38.69-48.89-38.69-48.89Z"/><path class="aq" d="M110.1,58.68c-18.84-15.92-33.37-38.61-33.37-38.61C58.45-2.09,32.86,7.07,29.6,8.36c0,0-.06,.02-.17,.07s-.17,.08-.17,.08c-3.2,1.44-27.62,13.39-24.49,41.93,0,0,6.12,26.25,4.38,50.85,0,0-3.82,40.54,8.01,61.62,11.83,21.07,41.99,51.66,91.13,32.41h.03c48.06-21.79,47.19-64.74,40.35-87.92-6.85-23.18-38.56-48.73-38.56-48.73Z"/><path class="i" d="M109.98,58.84c-18.77-15.87-33.26-38.48-33.26-38.48C58.5-1.72,32.99,7.41,29.74,8.69c0,0-.06,.02-.17,.07s-.17,.08-.17,.08c-3.19,1.43-27.52,13.34-24.41,41.79,0,0,6.1,26.16,4.37,50.68,0,0-3.81,40.4,7.98,61.41,11.79,21,41.85,51.49,90.82,32.3h.03c47.9-21.72,47.03-64.52,40.21-87.62-6.82-23.11-38.43-48.56-38.43-48.56Z"/><path class="ao" d="M109.85,59c-18.71-15.81-33.15-38.35-33.15-38.35C58.55-1.36,33.13,7.74,29.89,9.02c0,0-.06,.02-.17,.07s-.17,.08-.17,.08c-3.17,1.43-27.43,13.29-24.33,41.65,0,0,6.08,26.07,4.35,50.5,0,0-3.8,40.27,7.96,61.2,11.75,20.93,41.71,51.31,90.51,32.19h.03c47.74-21.64,46.87-64.3,40.07-87.32-6.8-23.03-38.3-48.4-38.3-48.4Z"/><path class="ay" d="M109.73,59.16c-18.65-15.76-33.03-38.22-33.03-38.22C58.6-.99,33.27,8.08,30.04,9.35c0,0-.06,.02-.17,.07s-.17,.08-.17,.08c-3.16,1.42-27.33,13.25-24.24,41.51,0,0,6.06,25.98,4.34,50.33,0,0-3.78,40.13,7.93,60.99,11.71,20.86,41.57,51.14,90.2,32.08h.03c47.58-21.57,46.71-64.08,39.94-87.02-6.78-22.95-38.17-48.23-38.17-48.23Z"/><path class="an" d="M109.6,59.32c-18.58-15.7-32.92-38.09-32.92-38.09C58.65-.63,33.4,8.41,30.19,9.68c0,0-.06,.02-.17,.07s-.17,.08-.17,.08c-3.15,1.42-27.24,13.2-24.16,41.37,0,0,6.04,25.89,4.32,50.16,0,0-3.77,39.99,7.9,60.78,11.67,20.79,41.42,50.96,89.89,31.97h.03c47.41-21.49,46.55-63.86,39.8-86.73-6.75-22.87-38.04-48.07-38.04-48.07Z"/><path class="as" d="M109.48,59.48c-18.52-15.65-32.81-37.96-32.81-37.96C58.7-.26,33.54,8.74,30.34,10.01c0,0-.06,.02-.17,.07s-.17,.08-.17,.08c-3.14,1.41-27.15,13.16-24.08,41.22,0,0,6.02,25.8,4.31,49.99,0,0-3.76,39.85,7.88,60.57,11.63,20.72,41.28,50.79,89.58,31.87h.03c47.25-21.42,46.39-63.64,39.66-86.43-6.73-22.79-37.91-47.9-37.91-47.9Z"/><path class="al" d="M109.35,59.63c-18.45-15.6-32.69-37.83-32.69-37.83C58.75,.1,33.68,9.08,30.49,10.34c0,0-.06,.02-.17,.07s-.17,.07-.17,.07c-3.13,1.41-27.05,13.11-23.99,41.08,0,0,5.99,25.71,4.29,49.81,0,0-3.74,39.72,7.85,60.37,11.59,20.65,41.14,50.61,89.27,31.76h.03c47.09-21.35,46.23-63.42,39.52-86.13-6.71-22.71-37.78-47.74-37.78-47.74Z"/><path class="w" d="M109.23,59.79c-18.39-15.54-32.58-37.7-32.58-37.7C58.8,.47,33.82,9.41,30.63,10.67c0,0-.06,.02-.17,.07s-.17,.07-.17,.07c-3.12,1.4-26.96,13.07-23.91,40.94,0,0,5.97,25.62,4.28,49.64,0,0-3.73,39.58,7.82,60.16,11.55,20.57,41,50.44,88.96,31.65h.03c46.92-21.27,46.07-63.2,39.39-85.83-6.68-22.63-37.64-47.57-37.64-47.57Z"/><path class="ag" d="M109.1,59.95c-18.33-15.49-32.47-37.57-32.47-37.57C58.85,.83,33.95,9.74,30.78,11c0,0-.06,.02-.17,.07s-.17,.07-.17,.07c-3.11,1.4-26.87,13.02-23.83,40.8,0,0,5.95,25.53,4.27,49.47,0,0-3.72,39.44,7.79,59.95,11.51,20.5,40.86,50.26,88.65,31.54h.03c46.76-21.2,45.91-62.98,39.25-85.53-6.66-22.56-37.51-47.4-37.51-47.4Z"/><path class="s" d="M108.98,60.11c-18.26-15.43-32.35-37.43-32.35-37.43C58.9,1.2,34.09,10.08,30.93,11.33c0,0-.06,.02-.17,.07s-.17,.07-.17,.07c-3.1,1.39-26.77,12.98-23.74,40.66,0,0,5.93,25.44,4.25,49.3,0,0-3.71,39.3,7.77,59.74,11.47,20.43,40.71,50.09,88.35,31.43h.03c46.6-21.12,45.75-62.76,39.11-85.23-6.64-22.48-37.38-47.24-37.38-47.24Z"/><path class="o" d="M108.85,60.27c-18.2-15.38-32.24-37.3-32.24-37.3C58.96,1.56,34.23,10.41,31.08,11.66c0,0-.06,.02-.17,.07s-.17,.07-.17,.07c-3.09,1.39-26.68,12.93-23.66,40.51,0,0,5.91,25.36,4.24,49.12,0,0-3.69,39.17,7.74,59.53,11.43,20.36,40.57,49.91,88.04,31.32h.03c46.44-21.05,45.59-62.54,38.98-84.94-6.61-22.4-37.25-47.07-37.25-47.07Z"/><path class="j" d="M108.73,60.43c-18.14-15.33-32.13-37.17-32.13-37.17C59.01,1.93,34.36,10.75,31.23,11.99c0,0-.06,.02-.17,.07s-.17,.07-.17,.07c-3.08,1.38-26.59,12.89-23.58,40.37,0,0,5.89,25.27,4.22,48.95,0,0-3.68,39.03,7.71,59.32,11.39,20.29,40.43,49.74,87.73,31.21h.03c46.27-20.98,45.43-62.33,38.84-84.64-6.59-22.32-37.12-46.91-37.12-46.91Z"/><path class="m" d="M108.6,60.59c-18.07-15.27-32.02-37.04-32.02-37.04C59.06,2.29,34.5,11.08,31.37,12.32c0,0-.06,.02-.17,.07-.11,.04-.16,.07-.16,.07-3.07,1.38-26.49,12.84-23.5,40.23,0,0,5.87,25.18,4.21,48.78,0,0-3.67,38.89,7.69,59.11,11.35,20.22,40.29,49.56,87.42,31.1h.03c46.11-20.9,45.27-62.11,38.7-84.34-6.57-22.24-36.99-46.74-36.99-46.74Z"/><path class="at" d="M32.62,16.37s.06-.03,.16-.07,.16-.07,.16-.07c3.38-1.35,27.3-9.74,44.43,10.74,.36,.15,14,21.26,31.45,36.25,.12,.29,29.29,24.02,35.48,45.59,6.23,21.75,6.66,61.61-37.94,81.8h-.03c-45.87,18.01-74.45-10.43-85.64-30.55-10.98-19.64-7.5-57.15-7.44-57.44,1.64-22.82-3.87-47.13-3.71-47.33C6.83,28.91,29.44,17.79,32.62,16.37Z"/><path class="y" d="M34.19,20.28s.06-.03,.16-.07,.16-.06,.16-.06c3.64-1.46,26.91-9.45,43.65,10.25,.72,.3,14.06,20.75,30.89,35.47,.24,.58,28.16,23.54,33.97,44.44,5.9,21.26,5.92,59.78-37.17,79.27h-.03c-44.6,17.53-72.78-10.02-83.85-30.02-10.57-19.08-7.32-55.19-7.2-55.77,1.62-22.04-3.53-45.49-3.21-45.88-2.43-25.39,19.37-36.17,22.65-37.63Z"/><path class="l" d="M35.77,24.2s.06-.03,.16-.07,.15-.06,.16-.06c3.9-1.57,26.52-9.17,42.87,9.77,1.08,.45,14.12,20.24,30.32,34.68,.37,.87,27.03,23.05,32.45,43.29,5.57,20.78,5.18,57.95-36.4,76.74h-.03c-43.34,17.06-71.13-9.6-82.07-29.49-10.18-18.51-7.13-53.22-6.96-54.1,1.59-21.26-3.19-43.84-2.72-44.42-2.14-24.39,18.84-34.83,22.23-36.34Z"/><path class="a`" d="M37.34,28.11s.06-.03,.15-.07,.15-.06,.16-.06c4.16-1.68,26.14-8.89,42.08,9.28,1.44,.6,14.17,19.73,29.76,33.89,.49,1.16,25.9,22.57,30.94,42.14s4.43,56.12-35.64,74.21h-.03c-42.07,16.59-69.49-9.18-80.29-28.96-9.79-17.93-6.95-51.26-6.72-52.43,1.57-20.47-2.85-42.19-2.22-42.97-1.86-23.39,18.31-33.49,21.81-35.04Z"/><path class="x" d="M38.92,32.03s.06-.03,.15-.07,.15-.06,.15-.06c4.42-1.79,25.75-8.6,41.3,8.79,1.8,.75,14.23,19.22,29.19,33.11,.61,1.44,24.76,22.09,29.43,40.99,4.9,19.81,3.69,54.29-34.87,71.69h-.03c-40.81,16.12-67.85-8.75-78.51-28.43-9.4-17.36-6.77-49.3-6.48-50.75,1.55-19.69-2.51-40.55-1.73-41.52-1.57-22.39,17.77-32.15,21.39-33.74Z"/><path class="n" d="M40.49,35.94s.06-.03,.15-.06,.14-.06,.15-.06c4.68-1.9,25.37-8.32,40.52,8.31,2.16,.9,14.29,18.71,28.63,32.32,.73,1.73,23.62,21.62,27.91,39.83,4.56,19.33,2.95,52.46-34.1,69.16h-.03c-39.54,15.64-66.21-8.33-76.72-27.9-9.02-16.78-6.58-47.33-6.23-49.08,1.52-18.91-2.17-38.9-1.23-40.07-1.29-21.39,17.24-30.81,20.97-32.44Z"/><path class="r" d="M42.07,39.86s.06-.03,.14-.06,.14-.06,.15-.06c4.93-2,24.98-8.03,39.74,7.82,2.52,1.05,14.34,18.19,28.06,31.53,.85,2.02,22.48,21.14,26.4,38.68,4.22,18.85,2.21,50.64-33.34,66.63h-.03c-38.28,15.17-64.57-7.9-74.94-27.37-8.63-16.2-6.4-45.37-5.99-47.41,1.5-18.13-1.84-37.25-.74-38.62-1-20.39,16.71-29.47,20.54-31.14Z"/><path class="af" d="M43.64,43.77s.06-.03,.14-.06,.13-.05,.14-.06c5.19-2.11,24.6-7.75,38.96,7.33,2.88,1.2,14.4,17.68,27.5,30.74,.98,2.31,21.33,20.67,24.89,37.53,3.87,18.37,1.46,48.81-32.57,64.1h-.03c-37.01,14.7-62.93-7.47-73.16-26.84-8.25-15.62-6.21-43.41-5.75-45.74,1.47-17.35-1.5-35.61-.24-37.17-.72-19.39,16.18-28.13,20.12-29.85Z"/><path class="am" d="M45.22,47.69s.06-.03,.14-.06,.13-.05,.14-.06c5.45-2.22,24.21-7.46,38.17,6.84,3.24,1.35,14.46,17.17,26.93,29.96,1.1,2.6,20.18,20.19,23.38,36.38,3.53,17.89,.72,46.98-31.8,61.58h-.03c-35.75,14.22-61.29-7.05-71.38-26.3-7.88-15.04-6.03-41.44-5.51-44.07,1.45-16.56-1.16-33.96,.26-35.71-.43-18.4,15.65-26.79,19.7-28.55Z"/><path class="ba" d="M46.79,51.6s.06-.03,.14-.06,.12-.05,.14-.06c5.71-2.33,23.82-7.18,37.39,6.36,3.6,1.5,14.52,16.66,26.37,29.17,1.22,2.89,19.03,19.72,21.86,35.23,3.18,17.42-.02,45.15-31.04,59.05h-.03c-34.48,13.75-59.66-6.62-69.59-25.77-7.5-14.46-5.85-39.48-5.27-42.4,1.43-15.78-.82-32.32,.75-34.26-.15-17.4,15.12-25.45,19.28-27.25Z"/><path class="ap" d="M48.37,55.52s.06-.03,.13-.06,.12-.05,.13-.05c5.97-2.44,23.44-6.9,36.61,5.87,3.96,1.65,14.57,16.15,25.8,28.38,1.34,3.18,17.87,19.25,20.35,34.08,2.83,16.95-.77,43.32-30.27,56.52h-.03c-33.21,13.28-58.02-6.19-67.81-25.24-7.13-13.88-5.66-37.52-5.02-40.73,1.4-15-.48-30.67,1.25-32.81,.14-16.4,14.59-24.11,18.86-25.95Z"/><path class="t" d="M49.94,59.43s.06-.03,.13-.06,.11-.05,.13-.05c6.23-2.55,23.05-6.61,35.83,5.38,4.32,1.8,14.63,15.64,25.24,27.6,1.46,3.47,16.71,18.79,18.84,32.92,2.48,16.47-1.51,41.49-29.5,53.99h-.03c-31.95,12.81-56.39-5.76-66.03-24.71-6.76-13.3-5.48-35.55-4.78-39.05,1.38-14.22-.14-29.02,1.74-31.36,.42-15.4,14.06-22.77,18.44-24.66Z"/><path class="ax" d="M51.52,63.34s.06-.03,.13-.06,.11-.04,.13-.05c6.48-2.66,22.67-6.33,35.04,4.89,4.68,1.95,14.69,15.13,24.67,26.81,1.58,3.75,15.55,18.32,17.33,31.77,2.12,16.01-2.25,39.66-28.74,51.46h-.03c-30.68,12.33-54.76-5.32-64.25-24.18-6.39-12.71-5.29-33.59-4.54-37.38,1.36-13.44,.2-27.38,2.24-29.91,.71-14.4,13.53-21.43,18.01-23.36Z"/><path class="aw" d="M53.09,67.26s.06-.03,.12-.05,.11-.04,.13-.05c6.74-2.77,22.28-6.04,34.26,4.41,5.04,2.1,14.75,14.62,24.11,26.02,1.71,4.04,14.37,17.85,15.81,30.62,1.75,15.54-2.99,37.83-27.97,48.94h-.02c-29.42,11.86-53.14-4.89-62.46-23.65-6.02-12.12-5.11-31.62-4.3-35.71,1.33-12.65,.54-25.73,2.73-28.46,.99-13.4,13-20.09,17.59-22.06Z"/><path class="v" d="M54.67,71.17s.06-.03,.12-.05,.1-.04,.12-.05c7-2.88,21.9-5.76,33.48,3.92,5.4,2.25,14.8,14.11,23.54,25.23,1.83,4.33,13.19,17.39,14.3,29.47,1.38,15.07-3.74,36.01-27.2,46.41h-.02c-28.15,11.39-51.52-4.45-60.68-23.12-5.66-11.53-4.93-29.66-4.05-34.04,1.31-11.87,.87-24.08,3.23-27,1.28-12.4,12.46-18.75,17.17-20.76Z"/><path class="au" d="M56.24,75.09s.06-.03,.12-.05,.1-.04,.12-.05c7.26-2.99,21.51-5.47,32.7,3.43,5.76,2.4,14.86,13.6,22.98,24.45,1.95,4.62,12.01,16.93,12.79,28.32,1,14.61-4.48,34.18-26.44,43.88h-.02c-26.89,10.92-49.9-4.01-58.9-22.59-5.3-10.94-4.74-27.7-3.81-32.37,1.28-11.09,1.21-22.44,3.72-25.55,1.56-11.4,11.93-17.41,16.75-19.46Z"/><path class="ah" d="M57.82,79s.06-.03,.12-.05,.09-.04,.12-.05c7.52-3.1,21.13-5.19,31.91,2.94,6.12,2.55,14.92,13.09,22.41,23.66,2.07,4.91,10.81,16.47,11.27,27.17,.61,14.15-5.22,32.35-25.67,41.35h-.02c-25.62,10.44-48.29-3.57-57.12-22.06-4.94-10.35-4.56-25.73-3.57-30.7,1.26-10.31,1.55-20.79,4.22-24.1,1.84-10.4,11.4-16.07,16.33-18.17Z"/><path class="q" d="M59.39,82.92s.06-.03,.11-.05,.09-.04,.11-.05c7.77-3.21,20.74-4.91,31.13,2.46,6.48,2.7,14.97,12.58,21.85,22.87,2.19,5.2,9.61,16.01,9.76,26.01,.21,13.68-5.96,30.52-24.9,38.82h-.02c-24.36,9.97-46.68-3.13-55.33-21.53-4.59-9.76-4.37-23.77-3.33-29.03,1.24-9.53,1.89-19.14,4.72-22.65,2.13-9.4,10.87-14.73,15.91-16.87Z"/><path class="u" d="M60.97,86.83s.06-.03,.11-.05,.08-.03,.11-.05c8.03-3.32,20.35-4.62,30.35,1.97,6.84,2.85,15.03,12.06,21.28,22.08,2.32,5.49,8.4,15.55,8.25,24.86-.21,13.22-6.71,28.69-24.14,36.3h-.02c-23.09,9.5-45.09-2.68-53.55-21-4.24-9.17-4.19-21.81-3.09-27.35,1.21-8.74,2.23-17.5,5.21-21.2,2.41-8.4,10.34-13.39,15.48-15.57Z"/><path class="aj" d="M62.54,90.75s.06-.03,.11-.05,.08-.03,.11-.04c8.29-3.43,19.97-4.34,29.57,1.48,7.2,3,15.09,11.55,20.72,21.3,2.44,5.78,7.17,15.08,6.74,23.71-.65,12.76-7.45,26.86-23.37,33.77h-.02c-21.83,9.02-43.5-2.23-51.77-20.47-3.89-8.57-4.01-19.84-2.84-25.68,1.19-7.96,2.57-15.85,5.71-19.75,2.7-7.4,9.81-12.04,15.06-14.27Z"/><path class="p" d="M64.12,94.66l.1-.04s.07-.03,.1-.04c8.55-3.54,19.58-4.05,28.78,.99,7.56,3.15,15.15,11.04,20.15,20.51,2.56,6.07,5.94,14.62,5.22,22.56-1.11,12.28-8.19,25.03-22.6,31.24h-.02c-20.56,8.55-41.92-1.77-49.99-19.94-3.54-7.98-3.82-17.88-2.6-24.01,1.16-7.18,2.91-14.2,6.2-18.29,2.98-6.41,9.28-10.7,14.64-12.97Z"/><path class="ad" d="M65.69,98.58l.1-.04,.1-.04c8.81-3.65,19.2-3.77,28,.51,7.92,3.3,15.2,10.53,19.59,19.72,2.68,6.35,4.69,14.14,3.71,21.41-1.59,11.8-8.94,23.2-21.84,28.71h-.02c-19.3,8.08-40.36-1.31-48.2-19.4-3.2-7.38-3.64-15.92-2.36-22.34,1.14-6.4,3.24-12.56,6.7-16.84,3.27-5.41,8.75-9.36,14.22-11.68Z"/><circle class="ai" cx="81.05" cy="135.15" r="35.45"/></g><circle id="d" class="bb" cx="81.13" cy="135.07" r="35.52"/><path id="e" class="bc" d="M104.82,133.15c-1.44-1.82-3.3-2.85-4.56-2.63h0s-.04,0-.06,0c-.17,.04-.34,.1-.48,.18-1.74,.86-2.15,3.25-2.15,3.25,.02,4.52-6.84,17.27-6.84,17.27-1.23,5.7,8.9,6.49,13.9-2.87,2.55-4.77,2.47-9,1.78-12.01h-.01c-.21-1-.75-2.14-1.58-3.2Z"/><g id="f"><path class="bd" d="M63.48,53.96c-6.8-1.58-12.76-.92-13.32,1.48s4.5,5.62,11.3,7.19c6.8,1.58,12.76,.92,13.32-1.48s-4.5-5.62-11.3-7.19Zm-1.57,6.12c-5.33-1.24-9.46-3.06-9.23-4.06s4.74-.81,10.07,.42,9.46,3.06,9.23,4.06-4.74,.81-10.07-.42Z"/><path class="bd" d="M74.42,63.28c-1.09,.78-4.6,.85-4.6,.85l-.76,3.27c.22,.17,.34,.45,.27,.74-.09,.39-.48,.63-.86,.54s-.63-.48-.54-.86c.07-.29,.3-.49,.57-.54l.7-3c-1.87,.45-8.14-1.23-8.14-1.23l-.83,3.56c.15,.17,.22,.41,.17,.64-.09,.39-.48,.63-.86,.54s-.63-.48-.54-.86c.07-.29,.3-.49,.57-.54l.83-3.56c-2.09,.1-6.86-2.18-6.86-2.18l-1.12,3c.13,.17,.19,.38,.14,.6-.09,.39-.48,.63-.86,.54s-.63-.48-.54-.86c.08-.35,.41-.58,.76-.55l1.23-2.97c-2.45-.86-4.02-3-4.02-3,0,0-3.74,11.66-3.77,18.14-.03,6.48,1.8,17.22,1.8,17.22,6.45,3.56,13.52,3.14,13.52,3.14,0,0,1.38-.86,7.4-11.55,6.02-10.69,6.35-21.08,6.35-21.08Z"/></g></g></svg>