<?xml version="1.0" encoding="UTF-8"?><svg id="a" xmlns="http://www.w3.org/2000/svg" viewBox="0 0 84 83"><defs><style>.e{fill:#c6c5ab;stroke:#e8e8cc;stroke-miterlimit:10;stroke-width:6px;}.f{fill:#e8e8cc;}</style></defs><g id="b"><circle id="c" class="e" cx="41.5" cy="41.5" r="35.5"/><g id="d"><rect class="f" x="21" y="28" width="41" height="4" rx="2" ry="2"/><rect class="f" x="27" y="60" width="29" height="4" rx="2" ry="2"/><rect class="f" x="11.42" y="45.88" width="30.9" height="4.21" rx="2" ry="2" transform="translate(70.43 14.42) rotate(81.62)"/><rect class="f" x="40.35" y="46.41" width="31.6" height="3.86" rx="1.86" ry="1.86" transform="translate(112.46 .19) rotate(98.74)"/><rect class="f" x="32" y="21" width="17" height="3" rx="1.5" ry="1.5"/><rect class="f" x="26" y="45" width="17" height="3" rx="1.5" ry="1.5" transform="translate(77.97 8.25) rotate(85.22)"/><rect class="f" x="33" y="44" width="17" height="3" rx="1.5" ry="1.5" transform="translate(87 4) rotate(90)"/><rect class="f" x="40" y="45" width="17" height="3" rx="1.5" ry="1.5" transform="translate(99.65 2.93) rotate(95.78)"/></g></g></svg>