<?xml version="1.0" encoding="UTF-8"?><svg id="a" xmlns="http://www.w3.org/2000/svg" viewBox="0 0 256 686"><defs><style>.q{fill:#ddab1f;}.r{fill:#f9e5c2;}.s{stroke:#b3b3b3;stroke-miterlimit:10;}.s,.t{fill:#e6e7e8;}</style></defs><g id="b"><g id="c"><polygon id="d" class="s" points="49.69 32.24 29.92 32.24 15.95 46.22 15.95 65.98 29.92 79.96 49.69 79.96 63.66 65.98 63.66 46.22 49.69 32.24"/><polygon id="e" class="s" points="135.15 32.24 115.39 32.24 101.42 46.22 101.42 65.98 115.39 79.96 135.15 79.96 149.13 65.98 149.13 46.22 135.15 32.24"/><polygon id="f" class="s" points="222.03 32.24 202.26 32.24 188.29 46.22 188.29 65.98 202.26 79.96 222.03 79.96 236 65.98 236 46.22 222.03 32.24"/><rect id="g" class="q" x="28" y="95" width="24" height="300" rx="12" ry="12"/><rect id="h" class="q" x="113" y="95" width="24" height="300" rx="12" ry="12"/><rect id="i" class="q" x="200" y="95" width="24" height="300" rx="12" ry="12"/><rect id="j" class="t" x="10" y="139" width="59" height="38"/><rect id="k" class="t" x="96" y="304" width="59" height="38"/><rect id="l" class="t" x="183" y="218" width="59" height="38"/></g><g id="m"><circle id="n" class="q" cx="111" cy="571" r="95"/><circle id="o" class="r" cx="133" cy="551" r="95"/><rect id="p" class="q" x="127.04" y="502.97" width="104.89" height="29.27" rx="14.63" ry="14.63" transform="translate(-254.71 183.53) rotate(-33.3)"/></g></g></svg>